<?xml version="1.0" standalone="no"?>
<!DOCTYPE svg PUBLIC "-//W3C//DTD SVG 20010904//EN"
 "http://www.w3.org/TR/2001/REC-SVG-20010904/DTD/svg10.dtd">
<svg version="1.0" xmlns="http://www.w3.org/2000/svg"
 width="700.000000pt" height="700.000000pt" viewBox="0 0 700.000000 700.000000"
 preserveAspectRatio="xMidYMid meet">
<metadata>
Created by potrace 1.14, written by Peter Selinger 2001-2017
</metadata>
<g transform="translate(0.000000,700.000000) scale(0.100000,-0.100000)"
fill="#000000" stroke="none">
<path d="M3415 6977 c-78 -37 -116 -86 -220 -282 -100 -190 -147 -278 -180
-340 -18 -33 -74 -139 -125 -235 -153 -290 -203 -383 -241 -451 -46 -81 -152
-198 -254 -279 -168 -135 -329 -209 -530 -246 -49 -9 -99 -18 -110 -20 -11 -2
-33 -7 -50 -9 -16 -3 -113 -22 -215 -41 -102 -20 -209 -40 -237 -45 -97 -17
-157 -28 -293 -53 -74 -14 -146 -27 -160 -29 -20 -4 -56 -11 -110 -22 -127
-26 -219 -89 -247 -171 -26 -75 8 -186 83 -269 20 -22 118 -125 218 -229 99
-104 201 -210 226 -236 25 -26 135 -141 245 -255 110 -114 223 -236 250 -271
139 -173 237 -459 239 -689 1 -90 -9 -215 -19 -255 -2 -8 -7 -42 -10 -75 -3
-33 -10 -87 -15 -120 -5 -33 -12 -80 -14 -105 -3 -25 -7 -61 -10 -80 -7 -45
-34 -252 -41 -310 -10 -89 -16 -135 -21 -160 -2 -14 -6 -50 -10 -80 -3 -30 -8
-64 -10 -75 -9 -46 -18 -153 -17 -200 2 -75 20 -131 55 -171 41 -47 80 -66
148 -71 77 -7 126 12 460 175 157 77 393 192 525 257 392 192 441 213 537 230
13 3 43 8 68 13 72 13 287 14 370 2 142 -22 203 -43 375 -125 66 -32 170 -81
230 -110 61 -29 164 -78 230 -110 66 -32 156 -75 200 -95 44 -21 151 -72 237
-113 200 -96 239 -110 314 -110 74 1 124 22 165 72 53 64 64 146 43 310 -8 58
-17 124 -19 146 -3 22 -7 51 -10 65 -3 14 -7 48 -10 75 -3 28 -8 61 -10 75 -8
45 -14 84 -20 140 -3 30 -7 62 -10 70 -2 8 -6 38 -10 65 -3 28 -12 95 -20 150
-15 111 -24 173 -31 225 -2 19 -11 85 -19 145 -16 113 -14 256 4 336 5 24 12
55 14 69 20 111 148 396 197 440 4 3 13 14 21 26 8 12 73 83 144 158 72 76
150 159 175 185 25 27 110 116 189 199 79 84 151 160 160 170 9 11 72 78 140
150 169 179 201 231 201 328 0 55 -11 83 -51 129 -51 58 -138 93 -299 120 -90
15 -161 27 -230 40 -41 8 -165 30 -275 50 -239 42 -305 54 -365 65 -25 5 -63
12 -85 15 -22 3 -47 7 -55 10 -8 2 -31 6 -50 9 -179 27 -318 80 -463 178 -180
120 -294 243 -392 423 -21 39 -62 114 -91 167 -29 54 -76 139 -103 190 -27 51
-67 125 -88 164 -340 629 -348 643 -428 689 -63 38 -128 42 -190 12z"/>
<path d="M1363 6822 c-76 -40 -110 -74 -142 -142 -26 -55 -29 -70 -27 -148 4
-132 49 -242 156 -384 215 -286 646 -626 814 -642 43 -4 52 -2 77 24 30 29 33
46 30 140 -7 181 -177 614 -339 860 -80 122 -190 228 -285 275 -66 32 -89 39
-155 41 -68 3 -83 0 -129 -24z"/>
<path d="M5465 6845 c-5 -1 -30 -8 -55 -16 -64 -18 -169 -90 -233 -159 -198
-214 -442 -768 -450 -1022 -4 -138 52 -174 188 -120 191 75 523 352 721 598
62 77 138 222 159 303 20 76 14 194 -13 252 -46 98 -156 170 -260 168 -26 0
-51 -2 -57 -4z"/>
<path d="M1047 3094 c-1 -1 -49 -4 -107 -8 -105 -6 -141 -10 -213 -22 -20 -3
-47 -7 -60 -9 -142 -17 -319 -72 -425 -131 -145 -81 -233 -199 -238 -321 -12
-290 316 -405 701 -245 256 106 563 300 712 448 79 80 98 115 94 179 -3 45
-111 90 -241 101 -67 5 -219 11 -223 8z"/>
<path d="M5750 3089 c-192 -15 -282 -68 -259 -151 46 -170 609 -540 956 -628
199 -51 376 -21 474 82 118 125 98 314 -48 448 -114 104 -318 186 -533 215
-42 5 -124 17 -145 21 -77 14 -334 21 -445 13z"/>
<path d="M3539 1565 c-128 -69 -291 -609 -304 -1004 -7 -218 50 -393 160 -490
55 -48 101 -64 185 -65 156 -1 257 89 322 289 32 97 33 332 3 523 -50 316
-165 645 -256 727 -42 38 -69 43 -110 20z"/>
</g>
</svg>
